<svg id="etEnSFicJ0z1" xmlns="http://www.w3.org/2000/svg" xmlns:xlink="http://www.w3.org/1999/xlink"
    viewBox="0 0 1920 1080" shape-rendering="geometricPrecision" text-rendering="geometricPrecision">
    <path
        d="M72.774859,451.459662l143.838649-307.08818L320.459654,451.968105L459.765476,144.371482L553.48029,447.771107L692.786112,37.459662L801.697924,450.902439L935.93808,154.502814l136.772975,295.399625l111.44466-305.530957l113.977479,307.08818l103.84616-416l149.437141,417l70.919331-292.891182l106.378979,294.891182l108.911827-297.424015l91.181988,301.424015-1856.033761-7Z"
        transform="translate(-27.774859 4.540338)" fill="none" stroke="#3f5787" stroke-width="3.84" />
    <path d="M252.07317,148.91182l79.984991,223.684803L252.07317,148.91182Z"
        transform="translate(.000002 0)" fill="none" stroke="#3f5787" stroke-width="3.84" />
    <path
        d="M235.941838,218.159475q-2.532833,0,16.131334-69.247655-13.598501,69.247655-16.131334,69.247655Z"
        transform="translate(.000001 0)" fill="none" stroke="#3f5787" stroke-width="3.84" />
    <path d="M327.393996,376.786116L188.838649,159.043152L327.393996,376.786116Z"
        transform="translate(4-7)" fill="none" stroke="#3f5787" stroke-width="3.84" />
    <path d="M928.339585,194.560977l-31.656659-.000001-9.598499-30.452158L767.639773,424.596623"
        transform="translate(.000002 0)" fill="none" stroke="#3f5787" stroke-width="3.84" />
    <path d="M1156.380856,148.91182L1009.390243,384.990619L1156.380856,148.91182Z"
        transform="translate(.000001 0)" fill="none" stroke="#3f5787" stroke-width="3.84" />
    <path d="" transform="translate(.000001 0)" fill="none" stroke="#3f5787" stroke-width="3.84" />
    <path d="M1374.204495,40l-136.85928,329.786116L1374.204495,40Z" fill="none" stroke="#3f5787"
        stroke-width="3.84" />
    <path d="M1462.83302,284.319888l40.459662-120.21107l20.348954,120.21107" fill="none"
        stroke="#3f5787" stroke-width="3.84" />
    <path
        d="M1594.560967,164.108818q-108.998116,182.889306-108.998116,185.422139t108.998116-185.422139Z"
        transform="translate(0 0.000002)" fill="none" stroke="#3f5787" stroke-width="3.84" />
    <path d="M1650.196998,284.319888l50.742948-100.160412L1733.780487,272.5"
        transform="matrix(1.234185 0 0 0.968737-400.238383 7.323035)" fill="none" stroke="#3f5787"
        stroke-width="3.84" />
    <path d="M1809.851773,164.10882L1670.459662,372.596623L1809.851773,164.10882Z"
        transform="translate(.000001 0)" fill="none" stroke="#3f5787" stroke-width="3.84" />
    <path d="M271.868667,194.893057l-27.861164-.332083l8.06567-42.517823l19.795494,42.849906Z"
        transform="translate(-2 2.000002)" fill="#544f4f" stroke="#3f5787" stroke-width="3.84" />
    <path d="M644.662288,93.714822h35.459663-35.459663Z" transform="translate(.000001 0)"
        fill="none" stroke="#3f5787" stroke-width="3.84" />
    <path d="M1138.564727,194.560977l37.992496-.000001-37.992496.000001Z"
        transform="translate(0 0.000002)" fill="none" stroke="#3f5787" stroke-width="3.84" />
    <path d="M1361.454033,93.714822h35.459662-35.459662Z" fill="none" stroke="#3f5787"
        stroke-width="3.84" />
    <path d="M1485.562851,204.89306h17.729831-17.729831Z" transform="translate(.000001 0)"
        fill="none" stroke="#3f5787" stroke-width="3.84" />
    <path d="M1670.459663,234.239682h45.590993-45.590993Z" transform="translate(.000001 0)"
        fill="none" stroke="#3f5787" stroke-width="3.84" />
    <path
        d="M1777.24015,202.214353l8.598499,14.605537l38.320824,3.094744-14.3077-55.805814-32.611623,38.105533Z"
        transform="translate(4.000001 1)" fill="#080808" stroke="#3f5787" stroke-width="3.84" />
    <path
        d="M1618.335835,229.239682l-23.774867-67.663697-17.414626,68.663697h42.189493-43.189493L1566.01501,211.89306l28.545958-51.78424-18.414626,69.130862"
        transform="translate(.000001 0)" fill="#171515" stroke="#3f5787" stroke-width="3.84" />
    <path d="M36.782363,459l58.25516,19.705441l1755.121951,5.065666l50.874286-20.771108"
        transform="translate(.000001 0.000002)" fill="none" stroke="#3f5787" stroke-width="3.84" />
    <path
        d="M95.037524,478.705443L91.906191,836.36773l100.932457,1.532832-.000001-229.692309l179.409004-1.065667-1.131332,228.159474l165.896811.532832c0,0,.59794-183.009481,32.065666-234.816136s86.918944-96.67871,136.502813-96.386493s102.581476,44.317199,132.408068,95.853658s24.496247,232.217635,24.496247,232.217635l65.853658,2.532832c0,0,1.795439-176.721404,17.729827-227.028135s26.323393-104.756025,63.32083-106.707327s55.195386,47.957522,73.495303,98.51783s12.621018,235.217628,12.621018,235.217628l43.05816.532832c0,0,24.532821-185.64617,60.787993-235.619138s90.07093-90.664235,141.838649-90.517825s135.255321,71.573235,148.545959,95.98499q13.290639,24.411758,33.904308,236.151969l70.919331-.934335-3.885544-235.42214l176.031894-.065666-.000001,235.553471l83.452157-.598499v-356.530955"
        transform="translate(.000009 0.000021)" fill="none" stroke="#3f5787" stroke-width="3.84" />
    <path
        d="M1527.83302,841.900563l-71.525328-79.517824c0,0,10.899301-144.475378-13.803002-181.159474s-63.503634-48.594914-101.313319-50.393997-126.641653,49.189494-126.641653,49.189494"
        fill="none" stroke="#3f5787" stroke-width="3.84" />
    <path
        d="M537.013139,832.703577l33.328324-40.058174c0,0-5.430126-142.255357,16.065666-184.437129s72.920487-86.144892,111.714823-86.208278s84.649935,43.106822,109.240149,84.208277s18.065666,202.035627,18.065666,202.035627l37.058166,24.459674"
        transform="translate(0 0.000004)" fill="none" stroke="#3f5787" stroke-width="3.84" />
    <g>
        <path
            d="M429.043152,853.564728c0,0,41.338493-200.674663,107.969987-273.545966s325.472794-163.422139,325.472794-163.422139-220.154476,120.782497-276.078804,191.61165-96.685741,247.356453-96.685741,247.356453l-60.678236-1.999998Z"
            transform="translate(0 0.000003)" fill="#444e51" stroke="#3f5787" stroke-width="3.84" />
        <path
            d="M489.721388,655.208278l47.291751,41.320803-11.307708,40.525327-55.80862-35.459662l19.824577-46.386468Z"
            transform="translate(0 0.000001)" fill="#fff" stroke="#3f5787" stroke-width="3.84" />
        <path
            d="M570.341463,557.223265l-33.32833,22.795497l49.393996,28.189515l27.861163-28.189516-43.926829-22.795496Z"
            transform="translate(0 0.000001)" fill="#f0eded" stroke="#3f5787" stroke-width="3.84" />
    </g>
    <g transform="translate(645 0)">
        <path
            d="M429.043152,853.564728c0,0,41.338493-200.674663,107.969987-273.545966s325.472794-163.422139,325.472794-163.422139-220.154476,120.782497-276.078804,191.61165-96.685741,247.356453-96.685741,247.356453l-60.678236-1.999998Z"
            transform="translate(0 0.000003)" fill="#444e51" stroke="#3f5787" stroke-width="3.84" />
        <path
            d="M489.721388,655.208278l47.291751,41.320803-11.307708,40.525327-55.80862-35.459662l19.824577-46.386468Z"
            transform="translate(0 0.000001)" fill="#fff" stroke="#3f5787" stroke-width="3.84" />
        <path
            d="M570.341463,557.223265l-33.32833,22.795497l49.393996,28.189515l27.861163-28.189516-43.926829-22.795496Z"
            transform="translate(0 0.000001)" fill="#f0eded" stroke="#3f5787" stroke-width="3.84" />
    </g>
    <g transform="matrix(-1 0 0 1 1360.529114 0)">
        <path
            d="M429.043152,853.564728c0,0,41.338493-200.674663,107.969987-273.545966s325.472794-163.422139,325.472794-163.422139-220.154476,120.782497-276.078804,191.61165-96.685741,247.356453-96.685741,247.356453l-60.678236-1.999998Z"
            transform="translate(0 0.000003)" fill="#444e51" stroke="#3f5787" stroke-width="3.84" />
        <path
            d="M489.721388,655.208278l47.291751,41.320803-11.307708,40.525327-55.80862-35.459662l19.824577-46.386468Z"
            transform="translate(0 0.000001)" fill="#fff" stroke="#3f5787" stroke-width="3.84" />
        <path
            d="M570.341463,557.223265l-33.32833,22.795497l49.393996,28.189515l27.861163-28.189516-43.926829-22.795496Z"
            transform="translate(0 0.000001)" fill="#f0eded" stroke="#3f5787" stroke-width="3.84" />
    </g>
    <g transform="matrix(-1 0 0 1 2017.529114-1)">
        <path
            d="M429.043152,853.564728c0,0,41.338493-200.674663,107.969987-273.545966s325.472794-163.422139,325.472794-163.422139-220.154476,120.782497-276.078804,191.61165-96.685741,247.356453-96.685741,247.356453l-60.678236-1.999998Z"
            transform="translate(0 0.000003)" fill="#444e51" stroke="#3f5787" stroke-width="3.84" />
        <path
            d="M489.721388,655.208278l47.291751,41.320803-11.307708,40.525327-55.80862-35.459662l19.824577-46.386468Z"
            transform="translate(0 0.000001)" fill="#fff" stroke="#3f5787" stroke-width="3.84" />
        <path
            d="M570.341463,557.223265l-33.32833,22.795497l49.393996,28.189515l27.861163-28.189516-43.926829-22.795496Z"
            transform="translate(0 0.000001)" fill="#f0eded" stroke="#3f5787" stroke-width="3.84" />
    </g>
    <path
        d="M217.639539,194.560976l-28.80089-45.649156-27.013134,51.98124l43.950984-1.166041l11.86304-5.166043Z"
        fill="#595353" stroke="#3f5787" stroke-width="3.84" />
    <path
        d="M453.495309,148.91182l16.401502,45.649157-16.401501,10.332078-49.452158.000005l25-52.849908l13.38649,32.116324l11.065666-32.116323l83.517824,264.55347"
        transform="translate(.000001 0)" stroke="#3f5787" stroke-width="3.84" />
    <path
        d="M1489.73733,204.893055h19.748603q-6.193252-38.784235-6.193252-39.784235t-13.555351,39.784235Z"
        transform="translate(.000003 0)" stroke="#3f5787" stroke-width="3.84" />
    <path
        d="M1670.459664,234.239682h53.601879l-25.025359-48.514549q-28.576518,48.51455-28.57652,48.514549Z"
        transform="translate(-1.999997 0.000001)" stroke="#3f5787" stroke-width="3.84" />
    <path
        d="M1396.913695,93.714822h-35.459662Q1374.204495,40.930232,1374.204495,40t22.7092,53.714822Z"
        transform="translate(-1 0)" stroke="#3f5787" stroke-width="3.84" />
    <path
        d="M1138.564729,194.560976l32.140702.000003-14.324575-42.517828q-22.217087,42.517823-17.816127,42.517825Z"
        transform="translate(1 0.000001)" stroke="#3f5787" stroke-width="3.84" />
    <path d="M896.682928,193.011726l-18.535989-7.85225l8.93749-23.583492l9.598499,31.435742Z"
        transform="translate(0 0.000001)" stroke="#3f5787" stroke-width="3.84" />
    <path d="M908.163221,160.10882l-11.480293,32.902907l11.480292-33.099908l15.183717,33.099907"
        transform="translate(.000003 0.000001)" stroke="#3f5787" stroke-width="3.84" />
    <path d="M680.121952,93.714822h-34.357409L665.011252,42l15.1107,51.714822Z"
        transform="translate(.000003 0)" stroke="#3f5787" stroke-width="3.84" />
</svg>