<svg id="eCOjlnd6Tuv1" xmlns="http://www.w3.org/2000/svg" xmlns:xlink="http://www.w3.org/1999/xlink"
    viewBox="0 0 300 300" shape-rendering="geometricPrecision" text-rendering="geometricPrecision">
    <path
        d="M46.709408,291.506829c0,0,1.589191-120.936608,19.557012-150.66142c16.607756-27.474808,54.034544-52.090685,83.733579-52.876364c32.462432-.858784,73.904173,18.440135,94.452523,52.876364s18.108344,150.66142,18.108344,150.66142h-215.851458Z"
        transform="translate(.000001 0.000005)" fill="none" stroke="#101111" stroke-width="2" />
    <path
        d="M128.663918,147.215529c0,0,6.020074-30.469758,9.311544-35.343465s10.48125-8.422022,16.703728-8.692007s17.090154,3.516293,20.961627,8.692006s6.513264,34.758644,6.513264,34.758644"
        transform="translate(-.002127 0.000002)" fill="none" stroke="#181819" stroke-width="5" />
    <path
        d="M125.661789,161.126759c0,0-1.740458-16.489058,0-20.281345s7.0362-14.21607,11.522376-14.580132s6.471999,10.503485,8.758968,14.580132s0,20.281345,0,20.281345h-20.281344Z"
        transform="matrix(.996195 0.087156-.087156 0.996195 3.004398 9.592089)" stroke="#3f5787"
        stroke-width="0.6" />
    <path
        d="M124.795764,161.626759c0,0-.874433-16.989058.866025-20.781345s5.117115-14.449366,9.603291-14.813428s8.391084,10.736781,10.678053,14.813428s0,20.281345,0,20.281345l-21.147369.5Z"
        transform="matrix(.984808-.173648 0.173648 0.984808 27.05663 46.001967)" stroke="#3f5787"
        stroke-width="0.6" />
    <path
        d="M46.709408,289.053494c0,0,1.589191-119.479094,19.557012-148.845666c16.607756-27.143685,54.034544-51.462894,83.733579-52.239104c32.462432-.848434,73.904173,18.217896,94.452523,52.239104s18.108344,148.845666,18.108344,148.845666h-215.851458Z"
        transform="matrix(-.8 0 0 0.9 280.115722 14.953747)" fill="none" fill-rule="evenodd"
        stroke="#0a0a0a" stroke-width="2" />
    <path
        d="M88.561121,132.126213c4.064232-1.073835,8.242711,5.62916,9.550084,8.485962s-2.130919,2.321749,0,8.364949s12.41568,21.258131,21.64686,27.292289s37.195954,10.216046,37.195954,10.216046s24.361617,4.735611,32.115355,10.82426s15.894243,18.133622,16.639448,27.051833-3.442509,19.06434-10.82343,26.450672-26.016647,17.300528-37.931375,16.28723-24.848176-13.440031-31.292232-20.495289-12.641818-16.239192-12.270449-23.444919s6.735245-13.584111,12.270447-18.635705s14.023324-8.741004,24.33821-13.225339s34.572065-8.068374,44.885399-15.028789s22.920204-27.292289,22.920204-27.292289-1.306869-5.800931,0-8.643847s5.090088-9.931181,9.296983-8.207068s1.535004,13.403887,0,16.850911.267024.232478-4.840277,5.650826-12.753635,21.488325-22.920204,28.096659-42.388086,14.585114-42.388086,14.585114-21.192487,8.686982-25.735853,13.225338-6.009794,7.68846-6.329456,12.624189s1.679471,12.299253,6.329456,18.03455s16.273036,14.567633,25.73586,15.629945s25.168719-4.315797,31.100397-10.219576s7.795222-15.349094,6.830976-22.242613-6.644974-14.496442-12.733447-19.838011-27.474889-13.225339-27.474889-13.225339-31.654152-3.462856-41.28572-9.649678-15.886586-21.750296-20.373516-27.020578-7.508041-5.023437-8.464122-8.832142-.056809-12.595756,4.007423-13.669591Z"
        transform="translate(.000007 7.000006)" fill="#0f0e0e" stroke="#0d0e0e" stroke-width="0.6" />
    <path d="" fill="none" stroke="#0e0e0e" stroke-width="0.6" />
    <path
        d="M150,204.309725c0,0,6.245042,1.342334,6.374098,3.205372s-2.239754,1.455907-2.374099,3.019966s1.536114,1.019956,1.677047,3.605956-6.5275,6.694242-6.661476,9.552553s3.901378,2.885482,3.661492,6.46568-9.836109,6.917378-9.968038,13.137473s6.736573,20.508711,14.244994,20.527022s14.698137-14.181031,14.393832-20.527022-11.340323-9.20521-11.232128-13.137473s3.921463-3.478479,4.174755-6.46568-4.578511-6.562647-4.174755-9.158509s2.197985-2.160613,2.073983-4.011516-2.173822-.988614-2.073983-3.00845s6.872437-3.205372,6.872437-3.205372"
        transform="translate(5.661477 0)" fill="none" stroke="#0e0e0e" stroke-width="2" />
    <path d="M159.661476,207.515097c0,0,2.76716-.995506,4.031717-1s4.157988,1,4.157988,1"
        transform="translate(.000002 0)" fill="none" stroke="#0e0e0e" stroke-width="2" />
    <path
        d="M156.406873,220.693572c0,0-5.904161-1.59417-8.037861-3.158509s-5.659988-7.000001-5.659988-7.000001"
        transform="translate(.000002 0.000001)" fill="none" stroke="#0e0e0e" stroke-width="2" />
    <path
        d="M154.677063,223.693572c0,0-9.272505-1.423435-11.968037-2.999999s-5.829353-6.158511-5.829353-6.158511"
        transform="translate(0 0.000001)" fill="none" stroke="#0e0e0e" stroke-width="2" />
    <path
        d="M157.954026,228.159252c0,0-10.268999,1.027394-15.245,3.202306s-16.82205,11.935167-16.82205,11.935167"
        transform="translate(0 0.000001)" fill="none" stroke="#0e0e0e" stroke-width="2" />
    <path
        d="M156.954026,232.361558c0,0-7.963696-1.154459-12.175658,1.705185s-10.429317,19.537428-10.429317,19.537428"
        transform="translate(0 0.000001)" fill="none" stroke="#0e0e0e" stroke-width="2" />
    <path
        d="M168.951954,220.693573c0,0,6.526965-.195136,9.199998-1.579255s7.587958-7.590772,7.587958-7.590772"
        transform="translate(0 0.000002)" fill="none" stroke="#0e0e0e" stroke-width="2" />
    <path
        d="M169.951954,223.693572c0,0,5.253233.592977,8.199998,0s10.917429-4.579252,10.917429-4.579252"
        transform="translate(.000001 0)" fill="none" stroke="#0e0e0e" stroke-width="2" />
    <path
        d="M165.777199,228.159253c0,0,9.263975-.094565,13.73347,1.999999s14.155385,12.71571,14.155385,12.71571"
        transform="translate(.000001 0.000002)" fill="none" stroke="#0e0e0e" stroke-width="2" />
    <path
        d="M165.777199,231.361559c0,0,7.127827-1.175121,11.568733,1.784194s10.70849,20.458419,10.70849,20.458419"
        transform="translate(.000001 0.000001)" fill="none" stroke="#0e0e0e" stroke-width="2" />
</svg>